<svg width="50" height="50" viewBox="0 0 350 350" fill="none" xmlns="http://www.w3.org/2000/svg">
<path d="M175 0C271.657 0 350 78.343 350 175C350 271.656 271.657 350 175 350C78.344 350 0 271.656 0 175C0 78.343 78.344 0 175 0ZM91.262 189.05L195.648 260.862C198.552 262.851 201.932 263.868 205.321 263.868C208.049 263.868 210.757 263.22 213.251 261.917C218.856 258.952 222.376 253.14 222.376 246.814V103.188C222.376 96.862 218.856 91.049 213.251 88.084C207.646 85.144 200.874 85.549 195.648 89.139L91.262 160.95C86.643 164.13 83.875 169.391 83.875 175C83.875 180.609 86.642 185.87 91.262 189.05Z" fill="black"/>
</svg>
