<svg width="50" height="50" viewBox="0 0 350 350" fill="none" xmlns="http://www.w3.org/2000/svg">
<path d="M175 0C78.343 0 0 78.343 0 175C0 271.656 78.343 350 175 350C271.656 350 350 271.656 350 175C350 78.343 271.656 0 175 0ZM258.738 189.05L154.352 260.862C151.448 262.851 148.068 263.868 144.679 263.868C141.951 263.868 139.243 263.22 136.749 261.917C131.144 258.952 127.624 253.14 127.624 246.814V103.188C127.624 96.862 131.144 91.049 136.749 88.084C142.354 85.144 149.126 85.549 154.352 89.139L258.738 160.95C263.357 164.13 266.125 169.391 266.125 175C266.125 180.609 263.358 185.87 258.738 189.05Z" fill="black"/>
</svg>
